ply
format ascii 1.0
comment Created by Blender 2.78 (sub 0) - www.blender.org, source file: 'arrow3.blend'
element vertex 16
property float x
property float y
property float z
property float nx
property float ny
property float nz
element face 6
property list uchar uint vertex_indices
end_header
0.147126 6.455616 1.000001 0.000000 -0.000000 -1.000000
-35.000000 -10.000002 1.000001 0.000000 -0.000000 -1.000000
0.147124 40.000000 1.000001 0.000000 -0.000000 -1.000000
-35.000000 -10.000002 1.000001 -0.328085 0.230625 0.916063
0.147125 15.158426 7.254033 -0.328085 0.230625 0.916063
0.147124 40.000000 1.000001 -0.328085 0.230625 0.916063
0.147124 40.000000 1.000001 0.330554 0.230415 0.915228
0.147125 15.158426 7.254033 0.330554 0.230415 0.915228
35.000000 -9.999998 1.000001 0.330554 0.230415 0.915228
35.000000 -9.999998 1.000001 -0.265630 -0.562603 0.782891
0.147125 15.158426 7.254033 -0.265630 -0.562603 0.782891
0.147126 6.455616 1.000001 -0.265630 -0.562603 0.782891
0.147126 6.455616 1.000001 0.263561 -0.562934 0.783352
0.147125 15.158426 7.254033 0.263561 -0.562934 0.783352
-35.000000 -10.000002 1.000001 0.263561 -0.562934 0.783352
35.000000 -9.999998 1.000001 0.000000 0.000000 -1.000000
3 0 1 2
3 3 4 5
3 6 7 8
3 9 10 11
3 12 13 14
3 2 15 0
