ply
format ascii 1.0
comment Created by Blender 2.78 (sub 0) - www.blender.org, source file: 'arrow.blend'
element vertex 42
property float x
property float y
property float z
property float nx
property float ny
property float nz
element face 17
property list uchar uint vertex_indices
end_header
-2.727471 -17.695076 24.631424 -0.000000 -0.000000 -1.000000
-2.727471 9.856269 24.631424 -0.000000 -0.000000 -1.000000
31.711708 9.856269 24.631424 -0.000000 -0.000000 -1.000000
31.711708 30.519775 24.631424 -0.000000 -0.000000 -1.000000
66.150887 -3.919403 24.631424 -0.000000 -0.000000 -1.000000
31.711708 -38.358582 24.631424 0.000000 0.000000 -1.000000
31.711708 -17.695076 24.631424 0.000000 0.000000 -1.000000
31.711708 9.856269 38.407097 0.000000 0.000000 1.000000
-2.727471 9.856269 38.407097 0.000000 0.000000 1.000000
-2.727471 -17.695076 38.407097 0.000000 0.000000 1.000000
31.711708 -17.695076 38.407097 0.000000 -0.000000 1.000000
31.711708 -38.358582 38.407097 0.000000 -0.000000 1.000000
66.150887 -3.919403 38.407097 0.000000 -0.000000 1.000000
31.711708 30.519775 38.407097 -0.000000 0.000000 1.000000
31.711708 -17.695076 24.631424 -1.000000 0.000000 -0.000000
31.711708 -38.358582 24.631424 -1.000000 0.000000 -0.000000
31.711708 -38.358582 38.407097 -1.000000 0.000000 -0.000000
31.711708 -17.695076 38.407097 -1.000000 0.000000 -0.000000
66.150887 -3.919403 24.631424 0.707107 0.707107 0.000000
31.711708 30.519775 24.631424 0.707107 0.707107 0.000000
31.711708 30.519775 38.407097 0.707107 0.707107 0.000000
66.150887 -3.919403 38.407097 0.707107 0.707107 0.000000
31.711708 -38.358582 24.631424 0.707107 -0.707107 0.000000
66.150887 -3.919403 24.631424 0.707107 -0.707107 0.000000
66.150887 -3.919403 38.407097 0.707107 -0.707107 0.000000
31.711708 -38.358582 38.407097 0.707107 -0.707107 0.000000
-2.727471 -17.695076 24.631424 0.000000 -1.000000 -0.000000
31.711708 -17.695076 24.631424 0.000000 -1.000000 -0.000000
31.711708 -17.695076 38.407097 0.000000 -1.000000 -0.000000
-2.727471 -17.695076 38.407097 0.000000 -1.000000 -0.000000
31.711708 9.856269 24.631424 0.000000 1.000000 0.000000
-2.727471 9.856269 24.631424 0.000000 1.000000 0.000000
-2.727471 9.856269 38.407097 0.000000 1.000000 0.000000
31.711708 9.856269 38.407097 0.000000 1.000000 0.000000
-2.727471 9.856269 24.631424 -1.000000 0.000000 -0.000000
-2.727471 -17.695076 24.631424 -1.000000 0.000000 -0.000000
-2.727471 -17.695076 38.407097 -1.000000 0.000000 -0.000000
-2.727471 9.856269 38.407097 -1.000000 0.000000 -0.000000
31.711708 30.519775 24.631424 -1.000000 0.000000 -0.000000
31.711708 9.856269 24.631424 -1.000000 0.000000 -0.000000
31.711708 9.856269 38.407097 -1.000000 0.000000 -0.000000
31.711708 30.519775 38.407097 -1.000000 0.000000 -0.000000
3 0 1 2
3 2 3 4
3 4 5 6
3 6 0 2
3 2 4 6
3 7 8 9
3 10 11 12
3 7 9 10
3 12 13 7
3 10 12 7
4 14 15 16 17
4 18 19 20 21
4 22 23 24 25
4 26 27 28 29
4 30 31 32 33
4 34 35 36 37
4 38 39 40 41
