ply
format ascii 1.0
comment Created by Blender 2.78 (sub 0) - www.blender.org, source file: 'arrow3.blend'
element vertex 16
property float x
property float y
property float z
property float nx
property float ny
property float nz
element face 6
property list uchar uint vertex_indices
end_header
-0.000002 -0.293479 1.000000 0.000000 -0.000000 -1.000000
-50.000004 -10.000002 1.000000 0.000000 -0.000000 -1.000000
-0.000004 40.000000 1.000000 0.000000 -0.000000 -1.000000
-50.000004 -10.000002 1.000000 -0.523059 0.523059 0.672918
-0.000003 9.637089 24.601105 -0.523059 0.523059 0.672918
-0.000004 40.000000 1.000000 -0.523059 0.523059 0.672918
-0.000004 40.000000 1.000000 0.523059 0.523059 0.672918
-0.000003 9.637089 24.601105 0.523059 0.523059 0.672918
49.999996 -9.999998 1.000000 0.523059 0.523059 0.672918
49.999996 -9.999998 1.000000 -0.176138 -0.907319 0.381770
-0.000003 9.637089 24.601105 -0.176138 -0.907319 0.381770
-0.000002 -0.293479 1.000000 -0.176138 -0.907319 0.381770
-0.000002 -0.293479 1.000000 0.176138 -0.907319 0.381770
-0.000003 9.637089 24.601105 0.176138 -0.907319 0.381770
-50.000004 -10.000002 1.000000 0.176138 -0.907319 0.381770
49.999996 -9.999998 1.000000 0.000000 0.000000 -1.000000
3 0 1 2
3 3 4 5
3 6 7 8
3 9 10 11
3 12 13 14
3 2 15 0
